<svg width="393" height="443" viewBox="0 0 393 443" fill="none" xmlns="http://www.w3.org/2000/svg">
<path d="M199.524 62.8674C197.004 57.0334 195.362 65.4578 196.194 44.3743C202.742 12.9744 221.395 42.73 236.178 31.4449C248.621 25.4758 228.123 41.6262 243.671 49.465C250.421 52.5959 263.134 45.9736 270.064 49.465C270.064 37.2113 277.76 56.8532 287.548 52.6185C294.5 49.6001 288.695 43.4283 290.023 41.356C295.828 31.8279 299.383 25.0929 301.7 14.0331C300.058 -6.91521 305.683 1.86956 320.871 5.65376C347.445 0.855929 335.452 4.4374 332.932 23.3134C348.12 47.5503 309.261 55.4792 320.781 83.6355C326.519 97.601 324.134 103.03 338.782 104.404C363.33 106.656 356.332 106.07 374.783 120.171C389.461 125.876 402.766 134.627 413.822 145.85C429.302 148.53 405.699 161.617 413.259 176.371C423.205 195.81 404.957 221.421 416.477 212.231C418.727 210.406 419.357 216.083 419.627 216.466C423.452 222.007 431.238 220.61 429.01 223.223C423.61 229.508 422.372 234.013 419.875 237.955C418.12 240.725 412.404 249.059 410.717 247.708C409.258 246.298 407.36 245.431 405.339 245.253C257.621 245.906 382.343 326.906 305.953 359.973C266.262 369.276 264.034 408.289 248.306 437.301C231.071 443.135 175.021 449.825 176.709 421.736C178.554 415.114 178.329 418.493 179.364 412.974C175.314 407.388 176.281 405.676 179.544 399.684C163.433 355.806 209.2 400.405 224.545 318.144C221.71 304.764 194.214 298.772 220.18 290.077C244.616 274.13 235.931 285.347 259.016 281.901C271.167 273.364 279.582 252.754 270.492 242.257C234.333 215.227 244.639 169.929 228.145 131.118C207.467 113.571 210.055 85.6177 199.524 62.8674Z" stroke="white" stroke-width="0.5" stroke-linecap="round" stroke-linejoin="round"/>
<path d="M291.035 272.463C296.018 272.463 300.058 268.419 300.058 263.43C300.058 258.442 296.018 254.398 291.035 254.398C286.052 254.398 282.012 258.442 282.012 263.43C282.012 268.419 286.052 272.463 291.035 272.463Z" fill="white"/>
<path d="M374.851 198.175C378.554 198.175 381.556 195.17 381.556 191.463C381.556 187.756 378.554 184.75 374.851 184.75C371.147 184.75 368.145 187.756 368.145 191.463C368.145 195.17 371.147 198.175 374.851 198.175Z" fill="white"/>
<path d="M190.659 407.433C192.896 407.433 194.709 405.618 194.709 403.378C194.709 401.139 192.896 399.324 190.659 399.324C188.422 399.324 186.609 401.139 186.609 403.378C186.609 405.618 188.422 407.433 190.659 407.433Z" fill="white"/>
<path d="M208.952 61.178C211.189 61.178 213.002 59.3628 213.002 57.1235C213.002 54.8843 211.189 53.069 208.952 53.069C206.715 53.069 204.902 54.8843 204.902 57.1235C204.902 59.3628 206.715 61.178 208.952 61.178Z" fill="white"/>
<path d="M300.058 167.654C302.295 167.654 304.108 165.839 304.108 163.599C304.108 161.36 302.295 159.545 300.058 159.545C297.821 159.545 296.008 161.36 296.008 163.599C296.008 165.839 297.821 167.654 300.058 167.654Z" fill="white"/>
<path d="M291.035 317.31C293.272 317.31 295.085 315.495 295.085 313.256C295.085 311.017 293.272 309.201 291.035 309.201C288.798 309.201 286.985 311.017 286.985 313.256C286.985 315.495 288.798 317.31 291.035 317.31Z" fill="white"/>
<path d="M208.952 57.2586C273.012 48.2486 260.817 88.4108 279.177 138.169C301.43 181.484 364.005 203.919 378.923 189.976C390.916 178.714 379.238 137.132 360.698 132.267C340.019 126.861 304.446 165.401 293.443 207.23C279.83 259.286 307.663 304.268 291.778 314.022C279.222 321.748 257.644 296.204 244.076 305.012C224.05 314.022 259.827 465.863 201.662 413.785C180.376 397.409 182.244 379.997 167.213 354.094C161.071 343.552 161.836 348.305 109.229 293.276C78.6501 261.741 78.5827 240.207 91.3406 234.711C96.2008 232.639 107.901 239.464 107.901 239.464C107.901 239.464 117.802 228.539 125.474 232.571C153.803 247.392 103.109 300.326 71.1349 291.271C38.8013 273.386 26.7408 263.43 -0.732624 278.297C-14.7608 285.642 -31.0698 287.319 -46.2967 282.982" stroke="white" stroke-width="0.25" stroke-linecap="round" stroke-linejoin="round" stroke-dasharray="1 2"/>
</svg>
