<svg id="Layer_1" data-name="Layer 1" xmlns="http://www.w3.org/2000/svg" viewBox="0 0 221.77 196.67"><defs><style>.cls-1,.cls-3{fill:none;stroke:#fff;stroke-linecap:round;stroke-linejoin:round;}.cls-1{stroke-width:0.5px;}.cls-2{fill:#fff;}.cls-3{stroke-width:0.25px;stroke-dasharray:1 2;}</style></defs><path class="cls-1" d="M255.67,200.49c-1.12-2.59-1.85,1.15-1.48-8.21,2.91-13.94,11.2-.73,17.77-5.74,5.53-2.65-3.58,4.52,3.33,8,3,1.39,8.65-1.55,11.73,0,0-5.44,3.42,3.28,7.77,1.4,3.09-1.34.51-4.08,1.1-5,2.58-4.23,4.16-7.22,5.19-12.13-.73-9.3,1.77-5.4,8.52-3.72,11.81-2.13,6.48-.54,5.36,7.84,6.75,10.76-10.52,14.28-5.4,26.78,2.55,6.2,1.49,8.61,8,9.22,10.91,1,7.8.74,16,7a49.56,49.56,0,0,1,17.35,11.4c6.88,1.19-3.61,7-.25,13.55,4.42,8.63-3.69,20,1.43,15.92,1-.81,1.28,1.71,1.4,1.88,1.7,2.46,5.16,1.84,4.17,3-2.4,2.79-2.95,4.79-4.06,6.54-.78,1.23-3.32,4.93-4.07,4.33a3.94,3.94,0,0,0-2.39-1.09c-65.65.29-10.22,36.25-44.17,50.93-17.64,4.13-18.63,21.45-25.62,34.33-7.66,2.59-32.57,5.56-31.82-6.91.82-2.94.72-1.44,1.18-3.89-1.8-2.48-1.37-3.24.08-5.9-7.16-19.48,13.18.32,20-36.2-1.26-5.94-13.48-8.6-1.94-12.46,10.86-7.08,7-2.1,17.26-3.63,5.4-3.79,9.14-12.94,5.1-17.6-16.07-12-11.49-32.11-18.82-49.34C259.2,223,260.35,210.59,255.67,200.49Z" transform="translate(-136.33 -172.58)"/><circle class="cls-2" cx="160.01" cy="116.95" r="4.01"/><circle class="cls-2" cx="197.26" cy="85" r="2.98"/><circle class="cls-2" cx="115.4" cy="179.08" r="1.8"/><circle class="cls-2" cx="123.53" cy="25.36" r="1.8"/><circle class="cls-2" cx="164.02" cy="72.63" r="1.8"/><circle class="cls-2" cx="160.01" cy="139.07" r="1.8"/><circle class="cls-2" cx="1.8" cy="97.25" r="1.8"/><path class="cls-3" d="M259.86,198c28.47-4,23.05,13.83,31.21,35.92,9.89,19.23,37.7,29.19,44.33,23,5.33-5,.14-23.46-8.1-25.62-9.19-2.4-25,14.71-29.89,33.28-6.05,23.11,6.32,43.08-.74,47.41-5.58,3.43-15.17-7.91-21.2-4-8.9,4,7,71.41-18.85,48.29-9.46-7.27-8.63-15-15.31-26.5-2.73-4.68-2.39-2.57-25.77-27-13.59-14-13.62-23.56-7.95-26,2.16-.92,7.36,2.11,7.36,2.11s4.4-4.85,7.81-3.06c12.59,6.58-9.94,30.08-24.15,26.06-14.37-7.94-19.73-12.36-31.94-5.76a27.47,27.47,0,0,1-20.25,2.08" transform="translate(-136.33 -172.58)"/></svg>