<?xml version="1.0" encoding="utf-8"?>
<!-- Generator: Adobe Illustrator 25.1.0, SVG Export Plug-In . SVG Version: 6.00 Build 0)  -->
<svg version="1.1" id="Layer_1" xmlns="http://www.w3.org/2000/svg" xmlns:xlink="http://www.w3.org/1999/xlink" x="0px" y="0px"
	 viewBox="0 0 570.5 990.8" style="enable-background:new 0 0 570.5 990.8;" xml:space="preserve">
<style type="text/css">
	.st0{fill:url(#SVGID_1_);}
	.st1{fill:none;stroke:#FFFFFF;stroke-width:0.5;stroke-linecap:round;stroke-linejoin:round;stroke-miterlimit:10;}
	.st2{fill:#FFFFFF;}
	.st3{fill:none;stroke:#1D1D1B;stroke-linecap:round;stroke-linejoin:round;}
	.st4{fill:none;stroke:#1D1D1B;stroke-linecap:round;stroke-linejoin:round;stroke-dasharray:1.0026,2.0052;}
	.st5{fill:none;stroke:#1D1D1B;stroke-linecap:round;stroke-linejoin:round;stroke-dasharray:1.0939,2.1879;}
	.st6{fill:none;stroke:#1D1D1B;stroke-linecap:round;stroke-linejoin:round;stroke-dasharray:1.0052,2.0103;}
	.st7{fill:#FFFFFF;stroke:#1D1D1B;stroke-linecap:round;stroke-linejoin:round;stroke-miterlimit:10;stroke-dasharray:1,2;}
	
		.st8{fill:none;stroke:#FFFFFF;stroke-width:0.25;stroke-linecap:round;stroke-linejoin:round;stroke-miterlimit:10;stroke-dasharray:1,2;}
</style>
<linearGradient id="SVGID_1_" gradientUnits="userSpaceOnUse" x1="-20.8656" y1="896.8695" x2="552.5474" y2="303.0829">
	<stop  offset="4.795011e-07" style="stop-color:#0A999A"/>
	<stop  offset="0.7881" style="stop-color:#C1C6AE"/>
	<stop  offset="1" style="stop-color:#E9D0B2"/>
</linearGradient>
<rect x="20.6" y="263" class="st0" width="490.4" height="673.9"/>
<path class="st1" d="M144.9,364.6c-1.1-2.6-1.8,1.1-1.5-8.2c2.9-13.9,11.2-0.7,17.8-5.7c5.5-2.6-3.6,4.5,3.3,8c3,1.4,8.7-1.6,11.7,0
	c0-5.4,3.4,3.3,7.8,1.4c3.1-1.3,0.5-4.1,1.1-5c2.6-4.2,4.2-7.2,5.2-12.1c-0.7-9.3,1.8-5.4,8.5-3.7c11.8-2.1,6.5-0.5,5.4,7.8
	c6.7,10.8-10.5,14.3-5.4,26.8c2.5,6.2,1.5,8.6,8,9.2c10.9,1,7.8,0.7,16,7c7,2.9,12,6.1,17.3,11.4c6.9,1.2-3.6,7-0.3,13.5
	c4.4,8.6-3.7,20,1.4,15.9c1-0.8,1.3,1.7,1.4,1.9c1.7,2.5,5.2,1.8,4.2,3c-2.4,2.8-3,4.8-4.1,6.5c-0.8,1.2-3.3,4.9-4.1,4.3
	c-0.7-0.6-1.5-1.1-2.4-1.1c-65.7,0.3-10.2,36.2-44.2,50.9c-17.6,4.1-18.6,21.5-25.6,34.3c-7.7,2.6-32.6,5.6-31.8-6.9
	c0.8-2.9,0.7-1.4,1.2-3.9c-1.8-2.5-1.4-3.2,0.1-5.9c-7.2-19.5,13.2,0.3,20-36.2c-1.3-5.9-13.5-8.6-1.9-12.5c10.9-7.1,7-2.1,17.3-3.6
	c5.4-3.8,9.1-12.9,5.1-17.6c-16.1-12-11.5-32.1-18.8-49.3C148.4,387.1,149.6,374.7,144.9,364.6z"/>
<g>
	<path class="st2" d="M340.6,378.3c-1.1-2.6-1.8,1.1-1.5-8.2c2.9-13.9,11.2-0.7,17.8-5.7c5.5-2.6-3.6,4.5,3.3,8
		c3,1.4,8.7-1.6,11.7,0c0-5.4,3.4,3.3,7.8,1.4c3.1-1.3,0.5-4.1,1.1-5c2.6-4.2,4.2-7.2,5.2-12.1c-0.7-9.3,1.8-5.4,8.5-3.7
		c11.8-2.1,6.5-0.5,5.4,7.8c6.7,10.8-10.5,14.3-5.4,26.8c2.5,6.2,1.5,8.6,8,9.2c10.9,1,7.8,0.7,16,7c7,2.9,12,6.1,17.3,11.4
		c6.9,1.2-3.6,7-0.3,13.5c4.4,8.6-3.7,20,1.4,15.9c1-0.8,1.3,1.7,1.4,1.9c1.7,2.5,5.2,1.8,4.2,3c-2.4,2.8-3,4.8-4.1,6.5
		c-0.8,1.2-3.3,4.9-4.1,4.3c-0.7-0.6-1.5-1.1-2.4-1.1c-65.7,0.3-10.2,36.2-44.2,50.9c-17.6,4.1-18.6,21.5-25.6,34.3
		c-7.7,2.6-32.6,5.6-31.8-6.9c0.8-2.9,0.7-1.4,1.2-3.9c-1.8-2.5-1.4-3.2,0.1-5.9c-7.2-19.5,13.2,0.3,20-36.2
		c-1.3-5.9-13.5-8.6-1.9-12.5c10.9-7.1,7-2.1,17.3-3.6c5.4-3.8,9.1-12.9,5.1-17.6c-16.1-12-11.5-32.1-18.8-49.3
		C344.2,400.7,345.3,388.4,340.6,378.3z"/>
	<g>
		<path class="st3" d="M371.5,372.2c0.2,0.1,0.3,0.1,0.5,0.2c0-0.2,0-0.3,0-0.5"/>
		<path class="st4" d="M373,370.7c1.3,0.8,3.8,4.3,6.8,3.1c3.1-1.3,0.5-4.1,1.1-5c2.6-4.2,4.2-7.2,5.2-12.1
			c-0.7-9.3,1.8-5.4,8.5-3.7c11.8-2.1,6.5-0.5,5.4,7.8c6.7,10.8-10.5,14.3-5.4,26.8c2.5,6.2,1.5,8.6,8,9.2c10.9,1,7.8,0.7,16,7
			c7,2.9,12,6.1,17.3,11.4c6.9,1.2-3.6,7-0.3,13.5c4.4,8.6-3.7,20,1.4,15.9c1-0.8,1.3,1.7,1.4,1.9c1.7,2.5,5.2,1.8,4.2,3
			c-2.4,2.8-3,4.8-4.1,6.5c-0.8,1.2-3.3,4.9-4.1,4.3c-0.7-0.6-1.5-1.1-2.4-1.1c-65.7,0.3-10.2,36.2-44.2,50.9
			c-17.6,4.1-18.6,21.5-25.6,34.3c-7.7,2.6-32.6,5.6-31.8-6.9c0.5-1.9,0.7-1.9,0.8-2.4"/>
		<path class="st3" d="M331.6,534.2c0-0.1,0.1-0.3,0.1-0.5c-0.1-0.1-0.2-0.3-0.3-0.4"/>
		<path class="st5" d="M330.5,531.3c-0.1-0.7,0.1-1.3,0.5-2.1"/>
		<path class="st3" d="M331.5,528.2c0.1-0.1,0.2-0.3,0.2-0.4c-0.1-0.2-0.1-0.3-0.2-0.5"/>
		<path class="st6" d="M331,525.4c-4.6-15.4,14.3,1.1,20.8-33.8c-1.3-5.9-13.5-8.6-1.9-12.5c10.9-7.1,7-2.1,17.3-3.6
			c5.4-3.8,9.1-12.9,5.1-17.6c-16.1-12-11.5-32.1-18.8-49.3c-9.2-7.8-8.1-20.2-12.7-30.3c-1.1-2.6-1.8,1.1-1.5-8.2
			c2.9-13.9,11.2-0.7,17.8-5.7c5.5-2.6-3.6,4.5,3.3,8c2.6,1.2,7.1-0.8,10.3-0.4"/>
	</g>
</g>
<path class="st7" d="M375.7,448.7c2.6-1.3,5.7-2.6,9.4-3.7c5.6-1.6,7.5-0.3,11.9-2c1.8-0.7,7.4-3.3,8.1-8.3c0.4-3.1-0.5-6.8-2.6-7.1
	c-1.9-0.3-5.2,2.3-5.2,2.3s-2.9-2.5-4.8-2.4c-1.9,0.1-3,2.6-3.2,4.9c-0.7,5.3,6.8,13,15.3,13.6c7.7,0.5,15.4-4.8,19.7-13.3"/>
<circle class="st2" cx="185.6" cy="453.6" r="4"/>
<circle class="st2" cx="222.8" cy="421.7" r="3"/>
<circle class="st2" cx="141" cy="515.8" r="1.8"/>
<circle class="st2" cx="149.1" cy="362.1" r="1.8"/>
<circle class="st2" cx="189.6" cy="409.3" r="1.8"/>
<circle class="st2" cx="185.6" cy="475.8" r="1.8"/>
<circle class="st2" cx="27.4" cy="433.9" r="1.8"/>
<path class="st8" d="M149.1,362.1c28.5-4,23.1,13.8,31.2,35.9c9.9,19.2,37.7,29.2,44.3,23c5.3-5,0.1-23.5-8.1-25.6
	c-9.2-2.4-25,14.7-29.9,33.3c-6,23.1,6.3,43.1-0.7,47.4c-5.6,3.4-15.2-7.9-21.2-4c-8.9,4,7,71.4-18.8,48.3
	c-9.5-7.3-8.6-15-15.3-26.5c-2.7-4.7-2.4-2.6-25.8-26.9c-13.6-14-13.6-23.6-8-26c2.2-0.9,7.4,2.1,7.4,2.1s4.4-4.8,7.8-3.1
	c12.6,6.6-9.9,30.1-24.1,26.1c-14.4-7.9-19.7-12.4-31.9-5.8c-10.1,5.5-20.3,2.1-20.3,2.1"/>
</svg>
